<mxfile host="app.diagrams.net" agent="Mozilla/5.0 (Windows NT 10.0; Win64; x64) AppleWebKit/537.36 (KHTML, like Gecko) Chrome/129.0.0.0 Safari/537.36" version="24.7.17">
  <diagram name="P치gina-1" id="u6jnsU2wni4dnb1Qq9eC">
    <mxGraphModel grid="0" page="0" gridSize="10" guides="1" tooltips="1" connect="1" arrows="1" fold="1" pageScale="1" pageWidth="827" pageHeight="1169" math="0" shadow="0">
      <root>
        <mxCell id="0" />
        <mxCell id="1" parent="0" />
        <mxCell id="gg3uo95G0Aif_Ux-rO0E-33" value="" style="rounded=0;whiteSpace=wrap;html=1;" vertex="1" parent="1">
          <mxGeometry x="-1044" y="-625" width="973" height="677" as="geometry" />
        </mxCell>
        <mxCell id="jutfiMefOcn9Cq1mFcB3-1" value="Maestro" style="shape=umlActor;verticalLabelPosition=bottom;verticalAlign=top;html=1;" vertex="1" parent="1">
          <mxGeometry x="-1108" y="-136" width="30" height="60" as="geometry" />
        </mxCell>
        <mxCell id="jutfiMefOcn9Cq1mFcB3-5" value="Registro" style="ellipse;whiteSpace=wrap;html=1;" vertex="1" parent="1">
          <mxGeometry x="-686" y="-114" width="120" height="80" as="geometry" />
        </mxCell>
        <mxCell id="jutfiMefOcn9Cq1mFcB3-6" value="Inicio de sesi칩n" style="ellipse;whiteSpace=wrap;html=1;" vertex="1" parent="1">
          <mxGeometry x="-793" y="-433" width="120" height="80" as="geometry" />
        </mxCell>
        <mxCell id="gg3uo95G0Aif_Ux-rO0E-2" value="Cerrar Sesi칩n" style="ellipse;whiteSpace=wrap;html=1;" vertex="1" parent="1">
          <mxGeometry x="-582" y="-585" width="120" height="80" as="geometry" />
        </mxCell>
        <mxCell id="gg3uo95G0Aif_Ux-rO0E-3" value="Buscar Cliente" style="ellipse;whiteSpace=wrap;html=1;" vertex="1" parent="1">
          <mxGeometry x="-582" y="-463" width="120" height="80" as="geometry" />
        </mxCell>
        <mxCell id="gg3uo95G0Aif_Ux-rO0E-4" value="Ver Perfil" style="ellipse;whiteSpace=wrap;html=1;" vertex="1" parent="1">
          <mxGeometry x="-582" y="-304" width="120" height="80" as="geometry" />
        </mxCell>
        <mxCell id="gg3uo95G0Aif_Ux-rO0E-17" value="" style="endArrow=classic;html=1;rounded=0;exitX=0.7;exitY=0.273;exitDx=0;exitDy=0;exitPerimeter=0;entryX=0;entryY=1;entryDx=0;entryDy=0;" edge="1" parent="1" source="jutfiMefOcn9Cq1mFcB3-1" target="jutfiMefOcn9Cq1mFcB3-6">
          <mxGeometry width="50" height="50" relative="1" as="geometry">
            <mxPoint x="-699" y="81" as="sourcePoint" />
            <mxPoint x="-869" y="-450" as="targetPoint" />
          </mxGeometry>
        </mxCell>
        <mxCell id="gg3uo95G0Aif_Ux-rO0E-18" value="" style="endArrow=classic;html=1;rounded=0;exitX=0.5;exitY=0.5;exitDx=0;exitDy=0;exitPerimeter=0;" edge="1" parent="1" source="jutfiMefOcn9Cq1mFcB3-1" target="jutfiMefOcn9Cq1mFcB3-5">
          <mxGeometry width="50" height="50" relative="1" as="geometry">
            <mxPoint x="-699" y="-155" as="sourcePoint" />
            <mxPoint x="-649" y="-205" as="targetPoint" />
          </mxGeometry>
        </mxCell>
        <mxCell id="gg3uo95G0Aif_Ux-rO0E-20" value="&amp;lt;&amp;lt;include&amp;gt;&amp;gt;" style="html=1;verticalAlign=bottom;labelBackgroundColor=none;endArrow=open;endFill=0;dashed=1;rounded=0;exitX=0.101;exitY=0.762;exitDx=0;exitDy=0;exitPerimeter=0;entryX=0.707;entryY=0.108;entryDx=0;entryDy=0;entryPerimeter=0;" edge="1" parent="1" source="gg3uo95G0Aif_Ux-rO0E-2" target="jutfiMefOcn9Cq1mFcB3-6">
          <mxGeometry width="160" relative="1" as="geometry">
            <mxPoint x="-761" y="-565" as="sourcePoint" />
            <mxPoint x="-601" y="-565" as="targetPoint" />
          </mxGeometry>
        </mxCell>
        <mxCell id="gg3uo95G0Aif_Ux-rO0E-21" value="" style="endArrow=none;html=1;rounded=0;exitX=1;exitY=0.5;exitDx=0;exitDy=0;entryX=0;entryY=0.5;entryDx=0;entryDy=0;" edge="1" parent="1" source="jutfiMefOcn9Cq1mFcB3-6" target="gg3uo95G0Aif_Ux-rO0E-3">
          <mxGeometry width="50" height="50" relative="1" as="geometry">
            <mxPoint x="-699" y="-273" as="sourcePoint" />
            <mxPoint x="-649" y="-323" as="targetPoint" />
          </mxGeometry>
        </mxCell>
        <mxCell id="gg3uo95G0Aif_Ux-rO0E-22" value="" style="endArrow=none;html=1;rounded=0;exitX=1;exitY=0.5;exitDx=0;exitDy=0;entryX=0;entryY=0.5;entryDx=0;entryDy=0;" edge="1" parent="1" source="jutfiMefOcn9Cq1mFcB3-6" target="gg3uo95G0Aif_Ux-rO0E-4">
          <mxGeometry width="50" height="50" relative="1" as="geometry">
            <mxPoint x="-699" y="-273" as="sourcePoint" />
            <mxPoint x="-596" y="-355" as="targetPoint" />
          </mxGeometry>
        </mxCell>
        <mxCell id="gg3uo95G0Aif_Ux-rO0E-24" value="Seleccionar regi칩n" style="ellipse;whiteSpace=wrap;html=1;" vertex="1" parent="1">
          <mxGeometry x="-386" y="-503" width="120" height="60" as="geometry" />
        </mxCell>
        <mxCell id="gg3uo95G0Aif_Ux-rO0E-25" value="Seleccionar Ciudad" style="ellipse;whiteSpace=wrap;html=1;" vertex="1" parent="1">
          <mxGeometry x="-386" y="-435" width="120" height="58" as="geometry" />
        </mxCell>
        <mxCell id="gg3uo95G0Aif_Ux-rO0E-26" value="Seleccionar Comuna" style="ellipse;whiteSpace=wrap;html=1;" vertex="1" parent="1">
          <mxGeometry x="-386" y="-369" width="120" height="52.5" as="geometry" />
        </mxCell>
        <mxCell id="gg3uo95G0Aif_Ux-rO0E-27" value="&amp;lt;&amp;lt;include&amp;gt;&amp;gt;" style="html=1;verticalAlign=bottom;labelBackgroundColor=none;endArrow=open;endFill=0;dashed=1;rounded=0;exitX=0;exitY=0.5;exitDx=0;exitDy=0;entryX=0.974;entryY=0.386;entryDx=0;entryDy=0;entryPerimeter=0;" edge="1" parent="1" source="gg3uo95G0Aif_Ux-rO0E-24" target="gg3uo95G0Aif_Ux-rO0E-3">
          <mxGeometry width="160" relative="1" as="geometry">
            <mxPoint x="-754" y="-298" as="sourcePoint" />
            <mxPoint x="-594" y="-298" as="targetPoint" />
          </mxGeometry>
        </mxCell>
        <mxCell id="gg3uo95G0Aif_Ux-rO0E-29" value="&amp;lt;&amp;lt;include&amp;gt;&amp;gt;" style="html=1;verticalAlign=bottom;labelBackgroundColor=none;endArrow=open;endFill=0;dashed=1;rounded=0;entryX=1;entryY=0.5;entryDx=0;entryDy=0;exitX=0;exitY=0.5;exitDx=0;exitDy=0;" edge="1" parent="1" source="gg3uo95G0Aif_Ux-rO0E-25" target="gg3uo95G0Aif_Ux-rO0E-3">
          <mxGeometry width="160" relative="1" as="geometry">
            <mxPoint x="-754" y="-298" as="sourcePoint" />
            <mxPoint x="-594" y="-298" as="targetPoint" />
          </mxGeometry>
        </mxCell>
        <mxCell id="gg3uo95G0Aif_Ux-rO0E-30" value="&amp;lt;&amp;lt;include&amp;gt;&amp;gt;" style="html=1;verticalAlign=bottom;labelBackgroundColor=none;endArrow=open;endFill=0;dashed=1;rounded=0;entryX=0.984;entryY=0.71;entryDx=0;entryDy=0;entryPerimeter=0;exitX=0.042;exitY=0.373;exitDx=0;exitDy=0;exitPerimeter=0;" edge="1" parent="1" source="gg3uo95G0Aif_Ux-rO0E-26" target="gg3uo95G0Aif_Ux-rO0E-3">
          <mxGeometry width="160" relative="1" as="geometry">
            <mxPoint x="-754" y="-298" as="sourcePoint" />
            <mxPoint x="-594" y="-298" as="targetPoint" />
          </mxGeometry>
        </mxCell>
        <mxCell id="gg3uo95G0Aif_Ux-rO0E-31" value="Enviar Mensaje" style="ellipse;whiteSpace=wrap;html=1;" vertex="1" parent="1">
          <mxGeometry x="-386" y="-290.25" width="120" height="52.5" as="geometry" />
        </mxCell>
        <mxCell id="gg3uo95G0Aif_Ux-rO0E-32" value="&amp;lt;&amp;lt;extend&amp;gt;&amp;gt;" style="html=1;verticalAlign=bottom;labelBackgroundColor=none;endArrow=open;endFill=0;dashed=1;rounded=0;exitX=1;exitY=0.5;exitDx=0;exitDy=0;entryX=0;entryY=0.5;entryDx=0;entryDy=0;" edge="1" parent="1" source="gg3uo95G0Aif_Ux-rO0E-4" target="gg3uo95G0Aif_Ux-rO0E-31">
          <mxGeometry width="160" relative="1" as="geometry">
            <mxPoint x="-754" y="-181" as="sourcePoint" />
            <mxPoint x="-594" y="-181" as="targetPoint" />
          </mxGeometry>
        </mxCell>
        <mxCell id="gg3uo95G0Aif_Ux-rO0E-36" value="Sistema" style="text;html=1;align=center;verticalAlign=middle;whiteSpace=wrap;rounded=0;" vertex="1" parent="1">
          <mxGeometry x="-1044" y="-655" width="60" height="30" as="geometry" />
        </mxCell>
      </root>
    </mxGraphModel>
  </diagram>
</mxfile>
